<svg xmlns="http://www.w3.org/2000/svg" xmlns:xlink="http://www.w3.org/1999/xlink" version="1.1" x="0px" y="0px" viewBox="0 0 100 125" enable-background="new 0 0 100 100" xml:space="preserve"><g><g><path fill="#000000" d="M91.472,50.942c0.003-0.052-0.002-0.103-0.015-0.152c-0.054-0.209-0.347-1.272-0.878-1.688    c-0.159-0.125-0.349-0.29-0.574-0.486c-2.349-2.042-8.567-7.451-25.407-7.504c-1.025-1.312-6.869-7.983-19.634-7.983    c-1.593,0-3.003-0.008-4.264-0.015c-9.722-0.056-10.737-0.062-18.783,3.956c-8.521,4.255-11.009,4.578-11.028,4.58    c-0.198,0.02-0.367,0.156-0.428,0.346c-0.146,0.457-3.27,10.396-1.236,14.838c0.006,0.018,0.015,0.032,0.023,0.049    c0.176,0.374,0.385,0.713,0.641,0.997c2.48,2.759,5.688,3.325,8.206,3.512c0.15,0.008,0.301-0.048,0.405-0.16    c0.104-0.112,0.149-0.267,0.126-0.417c-0.086-0.543-0.128-1.023-0.128-1.471c0-5.154,4.193-9.348,9.349-9.348    c5.154,0,9.348,4.193,9.348,9.348c0,0.485-0.046,0.995-0.141,1.559c-0.024,0.146,0.017,0.294,0.111,0.406s0.234,0.177,0.382,0.177    h26.826c0.147,0,0.287-0.064,0.382-0.178c0.095-0.112,0.136-0.261,0.111-0.406c-0.096-0.561-0.142-1.07-0.142-1.558    c0-5.154,4.193-9.348,9.349-9.348c5.154,0,9.348,4.193,9.348,9.348c0,0.481-0.046,0.99-0.14,1.556    c-0.024,0.147,0.018,0.298,0.116,0.41c0.098,0.112,0.231,0.179,0.39,0.172c1.162-0.03,5.077-0.267,6.651-2.056    c0.523-0.594,0.748-1.296,0.67-2.008L91.472,50.942z M90.266,50.396c0.078,0.182,0.15,0.381,0.203,0.569l-0.106,1.929l-4.48-1.044    l-1.12-1.795L90.266,50.396z M10.699,44.863l2.792,0.432l-0.483,2.019l-2.936,0.466C10.261,46.747,10.479,45.755,10.699,44.863z     M10.633,57.211c-0.014-0.015-0.022-0.035-0.035-0.051h7.137c-0.152,0.705-0.236,1.434-0.236,2.184    c0,0.316,0.019,0.646,0.056,0.997C15.333,60.118,12.682,59.49,10.633,57.211z M38.124,60.485c0.047-0.397,0.07-0.774,0.07-1.142    c0-0.75-0.085-1.479-0.236-2.184h26.003c-0.152,0.705-0.236,1.434-0.236,2.184c0,0.368,0.023,0.745,0.07,1.142H38.124z     M74.073,48.996c-4.596,0-8.496,3.013-9.843,7.165c-0.002,0-0.004-0.001-0.006-0.001H37.688c-1.347-4.152-5.247-7.164-9.842-7.164    s-8.495,3.012-9.843,7.164h-7.978c-0.692-1.776-0.557-4.604-0.13-7.34l3.598-0.571c0.2-0.032,0.361-0.181,0.408-0.378L14.59,45    c0.032-0.136,0.007-0.279-0.071-0.395c-0.078-0.116-0.2-0.194-0.339-0.216l-3.229-0.499c0.131-0.483,0.258-0.929,0.373-1.305    c0.927-0.203,3.91-1.062,11.04-4.621c7.831-3.911,8.825-3.899,18.33-3.852c1.263,0.008,2.675,0.016,4.27,0.016    c13.31,0,18.921,7.694,18.976,7.772c0.094,0.132,0.246,0.211,0.408,0.211c16.559,0,22.646,5.212,24.96,7.224l-5.453-0.339    c-0.205-0.021-0.365,0.082-0.461,0.243s-0.094,0.361,0.006,0.521l1.744,2.795c0.069,0.112,0.182,0.192,0.311,0.223l4.853,1.131    l-0.124,2.254c-0.005-0.001-0.008-0.003-0.013-0.003h-6.255C82.568,52.008,78.668,48.996,74.073,48.996z M89.688,58.765    c-1.122,1.274-3.986,1.604-5.334,1.689c0.044-0.387,0.066-0.754,0.066-1.11c0-0.75-0.085-1.479-0.236-2.184h5.943l-0.016,0.28    C90.163,57.949,90.025,58.383,89.688,58.765z"/><path fill="#000000" d="M74.073,51.791c-4.165,0-7.553,3.388-7.553,7.553s3.388,7.553,7.553,7.553    c4.164,0,7.552-3.388,7.552-7.553S78.237,51.791,74.073,51.791z M74.073,65.896c-3.613,0-6.553-2.939-6.553-6.553    s2.939-6.553,6.553-6.553c3.612,0,6.552,2.939,6.552,6.553S77.686,65.896,74.073,65.896z"/><path fill="#000000" d="M74.073,55.543c-2.096,0-3.801,1.705-3.801,3.801s1.705,3.801,3.801,3.801s3.801-1.705,3.801-3.801    S76.169,55.543,74.073,55.543z M74.073,62.145c-1.544,0-2.801-1.257-2.801-2.801s1.257-2.801,2.801-2.801s2.801,1.257,2.801,2.801    S75.617,62.145,74.073,62.145z"/><path fill="#000000" d="M27.847,51.791c-4.165,0-7.553,3.388-7.553,7.553s3.388,7.553,7.553,7.553s7.553-3.388,7.553-7.553    S32.012,51.791,27.847,51.791z M27.847,65.896c-3.613,0-6.553-2.939-6.553-6.553s2.939-6.553,6.553-6.553s6.553,2.939,6.553,6.553    S31.46,65.896,27.847,65.896z"/><path fill="#000000" d="M27.847,55.543c-2.096,0-3.801,1.705-3.801,3.801s1.705,3.801,3.801,3.801s3.801-1.705,3.801-3.801    S29.942,55.543,27.847,55.543z M27.847,62.145c-1.544,0-2.801-1.257-2.801-2.801s1.257-2.801,2.801-2.801s2.801,1.257,2.801,2.801    S29.391,62.145,27.847,62.145z"/><path fill="#000000" d="M44.537,47.884h-3.818c-0.276,0-0.5,0.224-0.5,0.5s0.224,0.5,0.5,0.5h3.818c0.276,0,0.5-0.224,0.5-0.5    S44.813,47.884,44.537,47.884z"/><path fill="#000000" d="M59.192,40.798h-0.123c-3.451-3.736-10.791-5.168-11.867-5.168h-6.931    c-0.397-0.011-9.778-0.361-13.72,3.643c-1.606,1.633-2.166,3.069-1.663,4.271c0.661,1.577,2.971,2.14,4.912,2.14h27.56v0.762    c0,0.276,0.224,0.5,0.5,0.5h1.332c1.407,0,2.553-1.146,2.553-2.553v-1.041C61.745,41.943,60.6,40.798,59.192,40.798z     M25.811,43.156c-0.327-0.782,0.175-1.883,1.454-3.183c3.057-3.104,10.07-3.354,12.286-3.353l-2.81,8.062h-6.94    C27.797,44.683,26.193,44.069,25.811,43.156z M37.799,44.683l2.807-8.053h6.597c0.908,0,7.078,1.229,10.474,4.205    c-0.185,0.073-0.315,0.252-0.315,0.463v3.385H37.799z M60.745,44.392c0,0.856-0.696,1.553-1.553,1.553H58.36v-4.146h0.832    c0.856,0,1.553,0.696,1.553,1.553V44.392z"/></g></g><text x="0" y="115" fill="#000000" font-size="5px" font-weight="bold" font-family="'Helvetica Neue', Helvetica, Arial-Unicode, Arial, Sans-serif">Created by 1516</text><text x="0" y="120" fill="#000000" font-size="5px" font-weight="bold" font-family="'Helvetica Neue', Helvetica, Arial-Unicode, Arial, Sans-serif">from the Noun Project</text></svg>