<svg viewBox="0 0 64 64" xmlns="http://www.w3.org/2000/svg"><g id="tire-car-pair-wheel"><path d="m31 3a27 27 0 1 0 27 27 27 27 0 0 0 -27-27zm0 41a14 14 0 1 1 14-14 14 14 0 0 1 -14 14z" fill="#2d2d30"/><path d="m44.68 27a14.223 14.223 0 0 1 0 6h-6.44l4.55 4.54a13.976 13.976 0 0 1 -4.24 4.25l-4.55-4.55v6.44a14.223 14.223 0 0 1 -6 0v-6.44l-4.55 4.55a13.976 13.976 0 0 1 -4.24-4.25l4.55-4.54h-6.44a14.222 14.222 0 0 1 0-6h6.44l-4.55-4.54a13.9 13.9 0 0 1 4.25-4.25l4.54 4.55v-6.44a14.223 14.223 0 0 1 6 0v6.44l4.54-4.55a13.9 13.9 0 0 1 4.25 4.25l-4.55 4.54z" fill="#2d2d30"/><path d="m31 12a18 18 0 1 0 18 18 18 18 0 0 0 -18-18zm0 32a14 14 0 1 1 14-14 14 14 0 0 1 -14 14z" fill="#c6c5ca"/><path d="m33 56h10v5h-10z" fill="#00d7df"/><path d="m35 53h6v3h-6z" fill="#00eed1"/><path d="m55 34h5v10h-5z" fill="#00d7df"/><path d="m52 36h3v6h-3z" fill="#00eed1"/><path d="m52 37v4h-12v12h-4v-12h-12v-4h12v-12h4v12z" fill="#dcf4ca"/><path d="m33 17h10v5h-10z" fill="#00d7df"/><path d="m35 22h6v3h-6z" fill="#00eed1"/><path d="m21 36h3v6h-3z" fill="#00ccb3"/><path d="m16 34h5v10h-5z" fill="#00d7df"/><path d="m60 33h-1.18a27.145 27.145 0 0 0 .18-3 28 28 0 1 0 -28 28c.35 0 .68-.01 1-.02v3.02a1 1 0 0 0 1 1h10a1 1 0 0 0 1-1v-5a.993.993 0 0 0 -.59-.91 27.892 27.892 0 0 0 11.27-10.16.876.876 0 0 0 .32.07h5a1 1 0 0 0 1-1v-10a1 1 0 0 0 -1-1zm-18 27h-8v-3h8zm-25.69-27h-.31a1 1 0 0 0 -1 1v1.72a16.981 16.981 0 0 1 25.62-19.72h-4.26a14.74 14.74 0 0 0 -5.36-1 14.969 14.969 0 0 0 -14.69 18zm23.69 7a1 1 0 0 0 -1 1v11h-2v-11a1 1 0 0 0 -1-1h-11v-2h11a1 1 0 0 0 1-1v-11h2v11a1 1 0 0 0 1 1h11v2zm3.01 2a15.88 15.88 0 0 1 -2.01 1.74v-1.74zm-3.01 12v1h-4v-1zm-13.94-12h.94v.334c-.317-.101-.631-.209-.94-.334zm2.94 0h4v.8a13.18 13.18 0 0 1 -4-.006zm7-18v-1h4v1zm5 12v-2h2.34a12.09 12.09 0 0 1 -.84 2zm5.88 0h-2.14a14.941 14.941 0 0 0 -.82-13.61 1.006 1.006 0 0 0 .08-.39v-2.93a16.927 16.927 0 0 1 4 10.93 16.644 16.644 0 0 1 -1.12 6zm-2.88-6a13.383 13.383 0 0 1 -.17 2h-2.83v-4h2.85a13.365 13.365 0 0 1 .15 2zm-3-4a1 1 0 0 0 1-1v-1.9a12.61 12.61 0 0 1 1.37 2.9zm1-5h-8v-3h8zm-15-3.36v2.7l-1.9-1.91a12.675 12.675 0 0 1 1.9-.79zm-5.66 8.36h-2.7a12.675 12.675 0 0 1 .79-1.9zm-4.34 9h3v8h-3zm7.684-2.382a1 1 0 0 0 -.924-.618h-5.586a12.916 12.916 0 0 1 -.174-2 13.161 13.161 0 0 1 .17-2h5.59a.987.987 0 0 0 .92-.62 1 1 0 0 0 -.21-1.09l-3.96-3.94a13.188 13.188 0 0 1 2.84-2.84l3.94 3.96a1.007 1.007 0 0 0 .71.29 1.015 1.015 0 0 0 1-1v-5.59a13.161 13.161 0 0 1 2-.17c.34 0 .67.02 1 .05v4.95a1 1 0 0 0 1 1h1v2a1 1 0 0 0 1 1v10h-10a1 1 0 0 0 -1-1h-.828l1.294-1.292a1 1 0 0 0 .218-1.09zm-1.684 4.382v4h-1v-4zm-1 7v-1h1.53a14.906 14.906 0 0 0 11.47 1.45v2.06a17.22 17.22 0 0 1 -13.07-2.14 1.156 1.156 0 0 0 .07-.37zm28.08 3.66-1.4-1.4-1.42 1.42 1.4 1.39a26.334 26.334 0 0 1 -3.8 2.93l-.99-1.72-1.74 1 .99 1.71c-.37.19-.75.37-1.12.54v-.53a1 1 0 0 0 -1-1v-5.87a19.1 19.1 0 0 0 4.7-4.13h5.3a1 1 0 0 0 1 1h1.48a26.134 26.134 0 0 1 -3.4 4.66zm3.92-6.66h-1v-4h1zm0-7v1h-2a1 1 0 0 0 -1 1h-1.99a18.64 18.64 0 0 0 .99-6 19 19 0 1 0 -35 10.22v3.78a1 1 0 0 0 1 1h3.36a19.077 19.077 0 0 0 11.64 4 18.492 18.492 0 0 0 4-.43v3.43a1 1 0 0 0 -1 1v2h-1a1 1 0 0 0 -1 .98v-1.98h-2v1.97a25.726 25.726 0 0 1 -4.76-.62l.51-1.91-1.93-.52-.51 1.92a25.729 25.729 0 0 1 -4.43-1.85l.99-1.71-1.74-1-.98 1.71a26.433 26.433 0 0 1 -3.8-2.92l1.39-1.39-1.42-1.42-1.39 1.39a26.433 26.433 0 0 1 -2.92-3.8l1.71-.98-1-1.74-1.71.99a25.729 25.729 0 0 1 -1.85-4.43l1.92-.51-.52-1.93-1.91.51a25.726 25.726 0 0 1 -.62-4.76h1.97v-2h-1.97a25.726 25.726 0 0 1 .62-4.76l1.91.51.52-1.93-1.92-.51a25.729 25.729 0 0 1 1.85-4.43l1.71.99 1-1.74-1.71-.98a26.433 26.433 0 0 1 2.92-3.8l1.39 1.39 1.42-1.42-1.39-1.39a26.433 26.433 0 0 1 3.8-2.92l.98 1.71 1.74-1-.99-1.71a25.729 25.729 0 0 1 4.43-1.85l.51 1.92 1.93-.52-.51-1.91a25.726 25.726 0 0 1 4.76-.62v1.97h2v-1.97a25.726 25.726 0 0 1 4.76.62l-.51 1.91 1.93.52.51-1.92a25.729 25.729 0 0 1 4.43 1.85l-.99 1.71 1.74 1 .98-1.71a26.433 26.433 0 0 1 3.8 2.92l-1.39 1.39 1.42 1.42 1.39-1.39a26.433 26.433 0 0 1 2.92 3.8l-1.71.98 1 1.74 1.71-.99a25.729 25.729 0 0 1 1.85 4.43l-1.92.51.52 1.93 1.91-.51a25.726 25.726 0 0 1 .62 4.76h-1.97v2h1.96c-.02.68-.07 1.34-.15 2h-1.81a1 1 0 0 0 -1 1zm5 9h-3v-8h3z"/></g></svg>