<svg xmlns="http://www.w3.org/2000/svg" xmlns:xlink="http://www.w3.org/1999/xlink" xml:space="preserve" style="shape-rendering:geometricPrecision;text-rendering:geometricPrecision;image-rendering:optimizeQuality;" viewBox="0 0 6.82666 8.533325000000001" x="0px" y="0px" fill-rule="evenodd" clip-rule="evenodd"><defs><style type="text/css">
   
    .fil1 {fill:none}
    .fil0 {fill:black;fill-rule:nonzero}
   
  </style></defs><g><path class="fil0" d="M4.80351 2.67029l-0.634941 0.634941 3.93701e-006 3.93701e-006c-0.0208268,0.0208268 -0.0545984,0.0208268 -0.0754252,0 -0.000968504,-0.000968504 -0.00188976,-0.00196457 -0.00276772,-0.00298425l-0.203783 -0.203846 -0.130902 0.130961 -0.0377087 -0.0375 0.0377205 0.0377047c-0.0208228,0.0208307 -0.0545945,0.0208386 -0.0754252,1.5748e-005 -0.000964567,-0.000964567 -0.00187795,-0.00195669 -0.00275591,-0.00297244l-0.277244 -0.277169 0.0375 -0.0377087 -0.0377087 0.0377165c-0.0208268,-0.0208228 -0.0208307,-0.0545984 -7.87402e-006,-0.0754252l0.000326772 -0.000318898 0.803976 -0.803972 -3.93701e-006 -3.93701e-006c0.0208268,-0.0208268 0.0545984,-0.0208268 0.0754252,0 0.00683858,0.00683858 0.0114331,0.0150748 0.0137795,0.0237913 0.0188661,0.0549882 0.0440039,0.108327 0.075437,0.158866 0.0309567,0.0497717 0.0682244,0.097 0.111835,0.14061l3.93701e-006 -3.93701e-006c0.000937008,0.000937008 0.00183071,0.00190551 0.00268504,0.0028937 0.0424961,0.042126 0.0888307,0.0784528 0.137925,0.10898 0.0517087,0.0321614 0.106102,0.0576693 0.161965,0.0765512l-0.016874 0.0504173 0.0170787 -0.0505236c0.0279016,0.00942913 0.042874,0.0397008 0.0334449,0.0676024 -0.00283858,0.00840157 -0.0075748,0.0156339 -0.0135591,0.021374zm-0.672748 0.521913l0.540583 -0.540583c-0.0364213,-0.0162598 -0.0718976,-0.0350394 -0.106142,-0.0563346 -0.0554567,-0.0344882 -0.108087,-0.0758228 -0.156709,-0.124024 -0.00105512,-0.000901575 -0.00207874,-0.00184646 -0.0030748,-0.00284252l3.93701e-006 -3.93701e-006c-0.049122,-0.049122 -0.0914016,-0.102803 -0.126835,-0.159776 -0.021315,-0.0342717 -0.0400866,-0.069689 -0.0563189,-0.105972l-0.709169 0.709165 0.20487 0.204819 0.128173 -0.128232c0.000870079,-0.00101181 0.00178346,-0.002 0.00274409,-0.00295669 0.0208268,-0.0208228 0.0545984,-0.020815 0.0754213,1.1811e-005l-0.0377165 0.0377047 0.0377087 -0.0375 0.206461 0.206524zm-0.813512 0.964346l-0.668646 0.668646 3.93701e-006 3.93701e-006c-0.0208268,0.0208268 -0.0545984,0.0208268 -0.0754252,0 -0.00683858,-0.00683858 -0.011437,-0.0150787 -0.0137835,-0.0237953 -0.018874,-0.0550315 -0.0440394,-0.108437 -0.0755079,-0.159043 -0.0311732,-0.050122 -0.068374,-0.0973661 -0.111626,-0.140579l0.0375 -0.0377087 -0.0376969 0.0377283 -0.000279528 -0.000283465c-0.0435354,-0.0435 -0.0906732,-0.0806811 -0.140339,-0.111567 -0.0515,-0.0320354 -0.105909,-0.0575276 -0.162008,-0.0765079l-3.14961e-005 9.44882e-005c-0.0278976,-0.00943701 -0.0428661,-0.0397126 -0.0334291,-0.0676102 0.00283858,-0.00838976 0.00756299,-0.0156102 0.0135394,-0.0213465l0.836846 -0.83685 -3.93701e-006 -3.93701e-006c0.0208268,-0.0208268 0.0545984,-0.0208268 0.0754252,0 0.000968504,0.000968504 0.00188976,0.00196457 0.00276772,0.00298425l0.277256 0.277335 0.000106299 -0.000106299c0.0208228,0.0208268 0.020815,0.0545984 -1.1811e-005,0.0754213l-0.000165354 0.000161417 -0.130728 0.130728 0.206559 0.206559 3.93701e-006 -3.93701e-006c0.0208268,0.0208268 0.0208268,0.0545984 0,0.0754252l-0.000326772 0.000318898zm-0.686543 0.535709l0.57374 -0.57374 -0.206236 -0.206236 -0.000326772 -0.000318898c-0.0208268,-0.0208268 -0.0208268,-0.0545984 0,-0.0754252l3.93701e-006 3.93701e-006 0.131008 -0.131008 -0.20472 -0.204776 -0.742449 0.742453c0.0362835,0.0162283 0.0717008,0.0350039 0.105976,0.0563228 0.056815,0.0353346 0.110362,0.0774803 0.159374,0.126437l0.000385827 0.000374016 -3.93701e-006 3.93701e-006 1.5748e-005 1.5748e-005 -0.000106299 0.000106299c0.0494567,0.0494291 0.0917598,0.103075 0.126941,0.159638 0.0213504,0.0343307 0.0401496,0.069811 0.0563976,0.10615z"/><path class="fil0" d="M5.86078 1.50444c0.0657047,0.162469 0.0814331,0.340638 0.0471417,0.510878 -0.0334843,0.16624 -0.114476,0.324602 -0.242965,0.453091l-7.48031e-005 7.48031e-005 3.93701e-006 3.93701e-006c-0.00104331,0.00104331 -0.00212598,0.0020315 -0.00322835,0.00297244 -0.173547,0.171894 -0.400047,0.257866 -0.626496,0.257866 -0.227882,0 -0.455772,-0.0869528 -0.629661,-0.260843l-7.48031e-005 -7.48031e-005c-0.173902,-0.173906 -0.260862,-0.401823 -0.260862,-0.629728 0,-0.227906 0.0869606,-0.455827 0.260862,-0.629728l-3.93701e-006 -3.93701e-006c0.00102362,-0.00102362 0.00208268,-0.00199213 0.00316535,-0.00291732 0.128087,-0.126878 0.285177,-0.206917 0.449906,-0.24011 0.171165,-0.0344882 0.35037,-0.0184055 0.51363,0.0482047l-0.02 0.049374 0.0201496 -0.0493819c0.0272717,0.011126 0.0403583,0.0422598 0.0292323,0.0695315 -0.00296457,0.00726772 -0.00735039,0.0135315 -0.0127047,0.0185906l-0.599445 0.599445 0.382862 0.382799 0.600409 -0.600409 -3.93701e-006 -3.93701e-006c0.0208268,-0.0208268 0.0545984,-0.0208268 0.0754252,0 0.00593701,0.00593701 0.0101811,0.0129252 0.0127323,0.0203701zm-0.0570236 0.490043c0.0249606,-0.123925 0.0197047,-0.252846 -0.0157402,-0.374965l-0.57776 0.57776 -0.000318898 0.000326772c-0.0208228,0.0208268 -0.0545984,0.0208307 -0.0754252,7.87402e-006l0.0377087 -0.0377165 -0.0377087 0.0377087 -0.457961 -0.457882 -0.000330709 -0.000322835c-0.0208268,-0.0208268 -0.0208268,-0.0545984 0,-0.0754252l3.93701e-006 3.93701e-006 0.578154 -0.578154c-0.122169,-0.0354528 -0.251114,-0.0407126 -0.375051,-0.0157402 -0.144854,0.029189 -0.283091,0.099689 -0.395902,0.211516 -0.000822835,0.000944882 -0.00167717,0.00187008 -0.00257874,0.00277165l-3.93701e-006 -3.93701e-006c-0.153067,0.153067 -0.22961,0.353693 -0.22961,0.554311 0,0.200618 0.0765433,0.40124 0.22961,0.554311l7.48031e-005 7.48031e-005c0.153055,0.153055 0.353646,0.229591 0.554244,0.229591 0.199551,0 0.399047,-0.0756535 0.551799,-0.226913 0.000799213,-0.000913386 0.00162992,-0.00181102 0.0025,-0.0026811l3.93701e-006 3.93701e-006 7.48031e-005 -7.48031e-005c0.113453,-0.113453 0.18485,-0.252705 0.214217,-0.398508z"/><path class="fil0" d="M1.59859 5.80895c0.12211,0.035437 0.251028,0.040685 0.374945,0.0157244 0.145827,-0.029374 0.285094,-0.100776 0.39852,-0.214197l0.000141732 -0.000141732 -3.93701e-006 -3.93701e-006c0.000874016,-0.000874016 0.00177559,-0.00170866 0.00269291,-0.00250787 0.151213,-0.152732 0.226835,-0.352228 0.226835,-0.551752 0,-0.200575 -0.0765118,-0.401134 -0.229524,-0.55415l-0.000141732 -0.000141732c-0.153071,-0.153067 -0.353693,-0.22961 -0.554311,-0.22961 -0.200618,0 -0.401244,0.0765433 -0.554311,0.22961l3.93701e-006 3.93701e-006c-0.000905512,0.000905512 -0.00183858,0.00176378 -0.0027874,0.00259055 -0.111811,0.112807 -0.182311,0.251035 -0.2115,0.39589 -0.0249724,0.123933 -0.0197126,0.252878 0.0157402,0.375051l0.578154 -0.578154 -3.93701e-006 -3.93701e-006c0.0208268,-0.0208268 0.0545984,-0.0208268 0.0754252,0l0.000322835 0.000330709 0.457882 0.457961 -0.0377087 0.0377087 0.0377165 -0.0377087c0.0208228,0.0208268 0.0208189,0.0546024 -7.87402e-006,0.0754252l-0.000326772 0.000318898 -0.577752 0.577756zm0.39578 0.11989c-0.17024,0.0342913 -0.348409,0.0185787 -0.510862,-0.047122 -0.00744488,-0.00255118 -0.0144331,-0.00679528 -0.0203701,-0.0127323 -0.0208268,-0.0208268 -0.0208268,-0.0545984 0,-0.0754252l3.93701e-006 3.93701e-006 0.600406 -0.600409 -0.382799 -0.382862 -0.599445 0.599445c-0.00505906,0.00535433 -0.0113228,0.00974016 -0.0185906,0.0127047 -0.0272717,0.011126 -0.0584055,-0.00196063 -0.0695315,-0.0292323l0.0493819 -0.0201496 -0.049374 0.02c-0.0666102,-0.16326 -0.0826929,-0.342469 -0.0482047,-0.51363 0.0331929,-0.164732 0.113232,-0.321819 0.24011,-0.449906 0.000925197,-0.00108268 0.0018937,-0.00214173 0.00291732,-0.00316535l3.93701e-006 3.93701e-006c0.173902,-0.173902 0.401823,-0.260862 0.629728,-0.260862 0.227906,0 0.455823,0.0869606 0.629728,0.260862l0.000141732 0.000141732c0.173846,0.17385 0.260776,0.401705 0.260776,0.629567 0,0.226417 -0.0859488,0.452913 -0.257799,0.626457 -0.000940945,0.00110236 -0.00192913,0.00218504 -0.00297244,0.00322835l-3.93701e-006 -3.93701e-006 -0.000141732 0.000141732c-0.128461,0.128457 -0.286835,0.209453 -0.453102,0.242945z"/><path class="fil0" d="M4.37077 2.71318l0 0.000137795 -0.000208661 0c-4.72441e-005,0.0581417 -0.0234882,0.11063 -0.0613425,0.148484 -0.0378661,0.0378661 -0.0903386,0.0612874 -0.148425,0.0612835l0 0.000208661 -0.000137795 0 -0.000275591 0 0 -0.000208661c-0.0579016,-4.72441e-005 -0.110268,-0.0234606 -0.14811,-0.0612756 -0.0379685,-0.0379331 -0.0614764,-0.0903622 -0.0615236,-0.14828l-0.000208661 0 0 -0.000275591 0 -0.000137795c0,-0.0578228 0.0236024,-0.110315 0.0617323,-0.148429 0.0378661,-0.0378504 0.0902953,-0.0612874 0.148248,-0.0613386l0 -0.000208661 0.000137795 0c0.0578583,0 0.110323,0.0235236 0.148346,0.0615315 0.0381575,0.0381417 0.0617677,0.0906654 0.0617677,0.148508zm-0.106461 0.000137795l-0.000208661 0 0 -0.000137795c0,-0.0286654 -0.0115039,-0.0545039 -0.0300984,-0.0730906 -0.0187087,-0.0187008 -0.0446457,-0.0302795 -0.0733465,-0.0302795l-0.000137795 0 0 -0.000208661c-0.0285,2.3622e-005 -0.0544173,0.0116811 -0.073248,0.0305039 -0.0185669,0.0185591 -0.030063,0.0443661 -0.030063,0.0730118l0 0.000137795 0 0.000275591 -0.000208661 0c1.9685e-005,0.0284331 0.0115906,0.0541969 0.0302717,0.0728622 0.0187992,0.0187874 0.0446614,0.0304213 0.0731102,0.0304409l0 -0.000208661 0.000275591 0 0.000137795 0 0 0.000208661c0.0283661,0 0.0541969,-0.0116378 0.0730079,-0.0304488 0.0188268,-0.0188268 0.0304882,-0.0446772 0.0305079,-0.0730669z"/><path class="fil0" d="M2.95345 4.1305c0,0.0580472 -0.0235236,0.110594 -0.0615591,0.14863 -0.0380354,0.0380354 -0.0905827,0.0615591 -0.14863,0.0615591 -0.0578386,0 -0.110354,-0.023626 -0.148488,-0.0617756 -0.0380197,-0.0380354 -0.0615512,-0.0905079 -0.0615512,-0.148339 0,-0.0580433 0.0235039,-0.110571 0.0615197,-0.148594 0.0380157,-0.0380157 0.0905472,-0.0615197 0.148594,-0.0615197 0.0578268,0 0.110303,0.0235315 0.148339,0.0615512 0.0381575,0.0381339 0.0617756,0.0906535 0.0617756,0.148488zm-0.136976 0.0732126c0.0187244,-0.0187244 0.0303071,-0.0446102 0.0303071,-0.0732126 0,-0.0286535 -0.0115118,-0.0544882 -0.0301063,-0.0730709 -0.0187205,-0.0187126 -0.0446614,-0.0302992 -0.0733386,-0.0302992 -0.0286024,0 -0.0544724,0.011563 -0.0731772,0.0302677 -0.0187008,0.0187047 -0.0302677,0.0445748 -0.0302677,0.0731772 0,0.0286772 0.0115827,0.0546142 0.0302992,0.0733386 0.0185827,0.0185906 0.0444173,0.0301063 0.0730709,0.0301063 0.0286024,0 0.0544882,-0.0115827 0.0732126,-0.0303071z"/><path class="fil0" d="M2.99822 3.8362l0.850693 -0.850697 -3.93701e-006 -3.93701e-006c0.0208268,-0.0208268 0.0545984,-0.0208268 0.0754252,0l0.000318898 0.000326772 1.59541 1.59541c0.127413,0.127413 0.191122,0.295327 0.191122,0.463193 0,0.167862 -0.0637087,0.33578 -0.191122,0.463189l3.93701e-006 3.93701e-006 -0.000952756 0.000929134c-0.127303,0.126823 -0.294823,0.190244 -0.462299,0.190244 -0.167858,0 -0.335772,-0.0637087 -0.463181,-0.191118l-7.87402e-006 -7.87402e-006 -1.59573 -1.59573 -3.93701e-006 3.93701e-006c-0.0208268,-0.0208268 -0.0208268,-0.0545984 0,-0.0754252l0.000326772 -0.000318898zm0.888402 -0.737571l-0.775598 0.775602 1.55802 1.55802 7.87402e-006 7.87402e-006c0.106575,0.106575 0.247154,0.159866 0.387764,0.159866 0.14048,0 0.280913,-0.053185 0.387453,-0.159555l0.000374016 -0.000374016 0.000425197 -0.00042126c0.106299,-0.106524 0.159449,-0.246917 0.159449,-0.387346 0,-0.140618 -0.0532913,-0.281197 -0.15987,-0.387776l-1.55803 -1.55803z"/><path class="fil0" d="M3.20424 3.63019l0.438323 -0.438323 -0.385657 -0.385661 -0.438327 0.438327 0.385661 0.385657zm0.551449 -0.400614l-0.513417 0.513417 -0.000318898 0.000326772c-0.0208268,0.0208268 -0.0545984,0.0208268 -0.0754252,0l3.93701e-006 -3.93701e-006 -0.460756 -0.460752 -0.000326772 -0.000318898c-0.0208268,-0.0208268 -0.0208268,-0.0545984 0,-0.0754252l3.93701e-006 3.93701e-006 0.513421 -0.513421 0.000318898 -0.000326772c0.0208268,-0.0208268 0.0545984,-0.0208268 0.0754252,0l-3.93701e-006 3.93701e-006 0.460752 0.460756 0.000326772 0.000318898c0.0208268,0.0208268 0.0208268,0.0545984 0,0.0754252l-3.93701e-006 -3.93701e-006z"/><path class="fil0" d="M3.27775 3.55667l0.291602 -0.291606 -3.93701e-006 -3.93701e-006c0.0208268,-0.0208268 0.0545984,-0.0208268 0.0754252,0l0.000318898 0.000326772 1.87492 1.87492c0.0504213,0.0504213 0.0756378,0.117016 0.0756417,0.183673 3.93701e-006,0.0666614 -0.0252087,0.13326 -0.075622,0.183673l3.93701e-006 3.93701e-006 -0.001 0.000972441c-0.0504252,0.0499016 -0.116571,0.074874 -0.182681,0.074874 -0.0665315,0 -0.133122,-0.0252835 -0.183689,-0.0758504l-1.87524 -1.87524 -3.93701e-006 3.93701e-006c-0.0208268,-0.0208268 -0.0208268,-0.0545984 0,-0.0754252l0.000326772 -0.000318898zm0.329311 -0.17848l-0.216508 0.216512 1.83753 1.83754c0.0297323,0.0297323 0.0689882,0.0445984 0.108272,0.0445984 0.0391772,0 0.078315,-0.0147913 0.108,-0.0443465l0.000700787 -0.00069685c0.029563,-0.0298031 0.0443465,-0.0688504 0.0443465,-0.107811 0,-0.0391457 -0.0149409,-0.0783898 -0.0448071,-0.108256l-1.83754 -1.83754z"/><path class="fil0" d="M1.5102 1.2375l1.61999 1.61999 3.93701e-006 -3.93701e-006c0.0208268,0.0208268 0.0208268,0.0545984 0,0.0754252l-0.000326772 0.000318898 -0.184622 0.184626 3.93701e-006 3.93701e-006c-0.0208268,0.0208268 -0.0545984,0.0208268 -0.0754252,0l-0.000318898 -0.000326772 -1.61967 -1.61967 -0.0167559 0.0167559 3.93701e-006 3.93701e-006c-0.0208268,0.0208268 -0.0545984,0.0208268 -0.0754252,0l-0.000318898 -0.000326772 -0.129512 -0.129516 -3.93701e-006 3.93701e-006c-0.0075748,-0.0075748 -0.0123976,-0.0168661 -0.0144606,-0.026622l-0.110551 -0.410996 -7.08661e-005 1.9685e-005c-0.00764961,-0.0284409 0.00920866,-0.0577087 0.0376496,-0.0653583 0.0111969,-0.00301181 0.0225197,-0.00222441 0.0325984,0.00157087l0.401421 0.11876 -0.015 0.0510394 0.0151299 -0.0511417c0.00926772,0.00274016 0.0172323,0.00777953 0.0234528,0.0143071l0.128965 0.128961 3.93701e-006 -3.93701e-006c0.0208268,0.0208268 0.0208268,0.0545984 0,0.0754252l-0.000326772 0.000318898 -0.0164331 0.016437zm1.50687 1.6577l-1.61983 -1.61983 -0.000165354 -0.000161417c-0.0208268,-0.0208228 -0.0208268,-0.0545945 -3.93701e-006,-0.0754213l0.0377126 0.0377087 -0.0377087 -0.0377087 0.0167559 -0.0167598 -0.0827402 -0.0827362 -0.300709 -0.0889646 0.0828543 0.308024 0.0821339 0.0821378 0.0164331 -0.0164331 0.000318898 -0.000326772c0.0208268,-0.0208268 0.0545984,-0.0208268 0.0754252,0l-3.93701e-006 3.93701e-006 1.62 1.62 0.109528 -0.109531z"/></g><rect class="fil1" width="6.82666" height="6.82666"/><text x="0" y="21.82666" fill="#000000" font-size="5px" font-weight="bold" font-family="'Helvetica Neue', Helvetica, Arial-Unicode, Arial, Sans-serif">Created by Grafix Point</text><text x="0" y="26.82666" fill="#000000" font-size="5px" font-weight="bold" font-family="'Helvetica Neue', Helvetica, Arial-Unicode, Arial, Sans-serif">from the Noun Project</text></svg>